<svg width="8" height="10" viewBox="0 0 8 10" fill="none" xmlns="http://www.w3.org/2000/svg">
<path d="M7.85868 0.491882H0.141365V7.97767C0.141365 8.59506 0.604403 9.13527 1.14462 9.13527H6.9326C7.47281 9.13527 7.93585 8.59506 7.93585 7.97767L7.85868 0.491882ZM2.61091 6.58856C2.61091 6.82008 2.37939 7.0516 2.14787 7.0516C1.91635 7.0516 1.68483 6.82008 1.68483 6.58856V2.7299C1.68483 2.49838 1.91635 2.26686 2.14787 2.26686C2.37939 2.26686 2.61091 2.49838 2.61091 2.7299V6.58856ZM4.46306 6.58856C4.46306 6.82008 4.23154 7.0516 4.00002 7.0516C3.7685 7.0516 3.53698 6.82008 3.53698 6.58856V2.7299C3.53698 2.49838 3.7685 2.26686 4.00002 2.26686C4.23154 2.26686 4.46306 2.49838 4.46306 2.7299V6.58856ZM6.39239 6.58856C6.39239 6.82008 6.16087 7.0516 5.92935 7.0516C5.69783 7.0516 5.46631 6.82008 5.46631 6.58856V2.7299C5.46631 2.49838 5.69783 2.26686 5.92935 2.26686C6.16087 2.26686 6.39239 2.49838 6.39239 2.7299V6.58856Z" fill="#376B8D"/>
</svg>
